<?xml version="1.0" standalone="no"?>
<!DOCTYPE svg PUBLIC "-//W3C//DTD SVG 20010904//EN"
 "http://www.w3.org/TR/2001/REC-SVG-20010904/DTD/svg10.dtd">
<svg version="1.0" xmlns="http://www.w3.org/2000/svg"
 width="60.000000pt" height="60.000000pt" viewBox="0 0 60.000000 60.000000"
 preserveAspectRatio="xMidYMid meet">

<g transform="translate(0.000000,60.000000) scale(0.100000,-0.100000)"
fill="#000000" stroke="none">
<path d="M40 580 c0 -13 -7 -20 -20 -20 -19 0 -20 -7 -20 -240 0 -233 1 -240
20 -240 13 0 20 -7 20 -20 0 -19 7 -20 260 -20 253 0 260 1 260 20 0 13 7 20
20 20 19 0 20 7 20 240 0 233 -1 240 -20 240 -13 0 -20 7 -20 20 0 19 -7 20
-260 20 -253 0 -260 -1 -260 -20z m150 -130 c0 -17 -7 -20 -40 -20 -39 0 -40
-1 -40 -35 0 -32 2 -35 30 -35 23 0 30 -4 30 -20 0 -16 -7 -20 -30 -20 l-30 0
0 -75 0 -75 -40 0 -40 0 0 150 0 150 80 0 c73 0 80 -2 80 -20z m380 16 c0 -16
-14 -36 -26 -36 -11 0 -14 -22 -14 -109 0 -100 2 -109 20 -114 13 -3 18 -10
14 -21 -9 -23 -219 -24 -228 -1 -3 8 1 18 8 22 10 6 15 38 18 116 3 97 1 107
-14 107 -11 0 -18 8 -18 20 0 19 7 20 120 20 66 0 120 -2 120 -4z m-308 -71
c-4 -35 -4 -35 37 -35 34 0 41 -3 41 -20 0 -17 -7 -20 -40 -20 l-40 0 0 -55
c0 -54 0 -55 30 -55 23 0 30 -4 30 -20 0 -17 -7 -20 -50 -20 -43 0 -50 3 -48
17 2 12 -4 18 -17 18 -18 0 -20 7 -22 90 -2 129 0 135 45 135 37 0 38 0 34
-35z"/>
<path d="M430 320 c0 -103 1 -110 20 -110 19 0 20 7 20 110 0 103 -1 110 -20
110 -19 0 -20 -7 -20 -110z"/>
</g>
</svg>
